<svg xmlns="http://www.w3.org/2000/svg" width="777.496" height="424.643" viewBox="0 0 777.496 424.643">
  <g id="header-backhround" transform="translate(-74.825 -184.704) rotate(7)" opacity="0.1">
    <path id="Path_366" data-name="Path 366" d="M233.044,247.934l-.579-6.816,9.984-6.356-13.541-3.9.634-2.544,17.678-15.157H221.686l-.127-2.363,15.735-4.285-.137-2.475q-20.672,3.732-41.34,7.47l-.315-2.73c5.377-2.2,10.7-5.33,16.146-6.419,22.719-4.534,45.562-7.314,68.2-12.874,30.465-7.476,60.783-16.936,91.169-25.488,5.357-1.511,10.714-3.222,16.108-3.943,4.675-.628,7.136,2.985,4.788,12.483,127.755-24.368,255.045-8.844,382.313,9.335l-.055,4.615c-10.916-1.113-21.825-2.674-32.751-3.215-11.255-.56-22.524-.124-29.869-.124l35.5,5.479L747,191.131,627.085,184.24l-.069,3.079q87.941,13.341,175.885,26.694l.048,1.853H755.087l.068,2.332c15.539,2.867,31.079,5.734,47.982,8.85l-4.545,5.374c17.376,4.82,35.106,9.74,51.951,14.417,5.3,15.088,14.59,11.668,22.329,19.436l-16.448,3.178-.168,1.692,6.8,4.161-7.893,5.193,8.952,2-4.915,5.8,12.324,4.061.178,1.859q-5.778,1.651-11.56,3.3L859.8,299.7l14.216,7.893-.093,1.194L851.1,306.677l-.2,4.148c9.185,2.438,18.37,4.876,28.6,7.594-1.669,2.718-3.366,4.229-3.767,6.493-.391,2.2.548,5.168.97,8.278-2.231,5.019-10.08-7.482-9.754,8.981l-10.707,7.513,18.048,9.516c-8.853,11.668-17.993-.46-24.844,4.391,3.492,4.08,7.842,9.161,13.243,15.468-8.356,13.123-18.6,4.826-27.7,12.756,5,2.967,8.952,5.311,12.9,7.65l.555,3.408c-3.742,2.861-7.482,5.722-11.574,8.857l4.25,6.033c-3.808,11.015-8.232,16.532-15.772,13.179-3.41-1.511-7.43,1.486-12.859,2.861,6.1,4.1,10.892,7.32,16.807,11.295-5.926,12.427-13.312-2.942-19.577,3.937l6.286,4.254-.137,2.556q-9.115-1.3-18.226-2.587l-.212,2.569,21.246,8.06.144,2.021c-5.323,3.041-10.542,7.476-15.988,8.769-6.481,1.53-13.161.684-19.741.274-6.484-.4-12.952-1.511-19.426-2.382-25.358-3.408-50.7-7.42-76.082-10.063-17.2-1.791-34.646.964-51.659-2.961-31.428-7.252-62.856-4-94.288-4.341-3.767-.037-7.537,4.522-11.331,6.81a11.865,11.865,0,0,1-4.524,2q-34.907,3.471-69.817,6.692c-3.516.33-7.07-.137-10.563.51-23.617,4.372-47.252,8.49-70.818,13.639-11.6,2.531-23.052,7.209-34.592,10.71-9.305,2.818-10.131,1.455-11.132-15.785-.086-1.524-1.045-2.88-2.132-5.685,13.24-8.608,26.208-17.041,39.177-25.469l-.041-1.362c-19.34,0-38.838-2.793-57.973.8-18.233,3.427-36.045,13.863-54.127,20.456-5.415,1.978-11.108,1.424-16.674,2-4.651.479-9.3.9-13.952,1.35l.154,4.155,10.748-2.208c-7.482,7.656-16.872,6.506-37.419-3.2l3.763-4.584c-19.145-9.7-38.019-1.922-57.191-1.256,3.318-14.324,15.855.889,16.992-19.256l-9.336-3.141c6.635-8.925,16.759-1.48,20.324-18.69-5.915-6.163-15.793,6.885-19.673-12.831L170,407.072l-2.522-6.151,5.96-7.843c-5.922-2.768-11.492-8.969-15.347-6.468-9.418,6.114-13.654-8.185-20.577-13.664,15.813-3.968,31.072-10.237,44.538-25.637L180.678,338H164.313c12.455-25.5,30.033-28.2,47.485-37.062l-5.055-2.792a56.518,56.518,0,0,0,25-10.853l-22.233-7.619-.065-3.346c5.254-1.263,10.491-2.83,15.766-3.707,4.945-.821,10.045.068,14.844-1.779,2.142-.821,3.719-6.487,5.946-10.71l19.885-3.452-.1-2.954c-9.206,1.076-18.422,3.184-27.617,2.923-8.671-.249-17.428,11.425-26.02,1.617l-.23-3.781q10.58-3.293,21.174-6.6c7.393,2.363,14.042-1.468,20.591-6.176l-.367-3.265Q243.181,243.191,233.044,247.934Z" transform="translate(0 9.225)" fill="#011e3f"/>
    <path id="Path_367" data-name="Path 367" d="M245.435,157.154c41.388-2.889,82.577,1.415,123.835,3.2l-.062,2.32L245.6,160.163Z" transform="translate(261.969 0)" fill="#011e3f"/>
    <path id="Path_368" data-name="Path 368" d="M288.785,161.927c-24.666,1.494-49.158,2.975-73.645,4.455l-.593-.788c3.006-1.227,5.939-3.252,9.034-3.551,18.394-1.762,36.823-3.211,55.255-4.562C282.962,157.18,288.076,155.761,288.785,161.927Z" transform="translate(186.996 2.294)" fill="#011e3f"/>
    <path id="Path_369" data-name="Path 369" d="M165.383,177.828q10.138-2.612,20.276-5.23l.367,1.8c-6.55,2.594-13.2,4.706-20.591,3.4Z" transform="translate(67.661 83.917)" fill="#011e3f"/>
  </g>
</svg>
